<?xml version="1.0" encoding="UTF-8" standalone="no"?>
<!-- Created with Inkscape (http://www.inkscape.org/) -->

<svg
   xmlns:dc="http://purl.org/dc/elements/1.1/"
   xmlns:cc="http://creativecommons.org/ns#"
   xmlns:rdf="http://www.w3.org/1999/02/22-rdf-syntax-ns#"
   xmlns:svg="http://www.w3.org/2000/svg"
   xmlns="http://www.w3.org/2000/svg"
   xmlns:sodipodi="http://sodipodi.sourceforge.net/DTD/sodipodi-0.dtd"
   xmlns:inkscape="http://www.inkscape.org/namespaces/inkscape"
   width="297mm"
   height="105mm"
   viewBox="0 0 297 105"
   version="1.1"
   id="svg8"
   inkscape:version="0.92.5 (2060ec1f9f, 2020-04-08)"
   sodipodi:docname="drawing.svg">
  <defs
     id="defs2" />
  <sodipodi:namedview
     id="base"
     pagecolor="#ffffff"
     bordercolor="#666666"
     borderopacity="1.0"
     inkscape:pageopacity="0.0"
     inkscape:pageshadow="2"
     inkscape:zoom="0.7"
     inkscape:cx="400.86029"
     inkscape:cy="177.33886"
     inkscape:document-units="mm"
     inkscape:current-layer="layer1"
     showgrid="false"
     inkscape:window-width="1366"
     inkscape:window-height="712"
     inkscape:window-x="0"
     inkscape:window-y="28"
     inkscape:window-maximized="1" />
  <metadata
     id="metadata5">
    <rdf:RDF>
      <cc:Work
         rdf:about="">
        <dc:format>image/svg+xml</dc:format>
        <dc:type
           rdf:resource="http://purl.org/dc/dcmitype/StillImage" />
        <dc:title></dc:title>
      </cc:Work>
    </rdf:RDF>
  </metadata>
  <g
     inkscape:label="Layer 1"
     inkscape:groupmode="layer"
     id="layer1"
     transform="translate(0,-192)">
    <text
       xml:space="preserve"
       style="font-style:normal;font-weight:normal;font-size:23.7196579px;line-height:1.25;font-family:sans-serif;letter-spacing:0px;word-spacing:0px;fill:#000000;fill-opacity:1;stroke:#000000;stroke-width:0.59299141"
       x="47.510777"
       y="282.46835"
       id="text817"><tspan
         sodipodi:role="line"
         id="tspan815"
         x="47.510777"
         y="282.46835"
         style="font-style:normal;font-variant:normal;font-weight:normal;font-stretch:normal;font-family:Chilanka;-inkscape-font-specification:Chilanka;stroke:#000000;stroke-width:0.59299141">Auto CAT Feeder</tspan></text>
    <path
       style="fill:#000000;stroke-width:0.11192438"
       d="m 174.68816,259.80246 c -0.0738,-0.0738 -0.13432,-0.25294 -0.13432,-0.39792 0,-0.25874 0.14612,-0.35034 1.39906,-0.87719 0.1775,-0.0747 0.12395,-0.10211 -0.25869,-0.13259 -0.64163,-0.0511 -1.87834,0.21022 -3.69563,0.78107 -1.60324,0.5036 -1.83385,0.49834 -1.89939,-0.0433 -0.0442,-0.3653 0.0799,-0.4499 1.20885,-0.82465 0.9398,-0.31195 0.94659,-0.31686 0.55962,-0.40466 -0.65319,-0.14822 -2.89393,0.26376 -4.72471,0.86867 -0.47483,0.15688 -1.00368,0.26913 -1.17521,0.24943 -0.26154,-0.03 -0.31757,-0.0949 -0.34715,-0.40223 -0.0319,-0.33091 0.006,-0.38394 0.39173,-0.54725 0.23486,-0.0994 0.90549,-0.31917 1.49029,-0.48824 l 1.06328,-0.30741 -0.59338,-0.17632 c -0.56475,-0.16783 -0.65707,-0.16336 -1.91224,0.0922 -1.33784,0.27247 -2.91014,0.68775 -3.80879,1.00597 -0.54074,0.19148 -0.85138,0.14705 -1.00353,-0.14356 -0.27265,-0.52076 0.3863,-0.85602 2.89692,-1.47383 1.31629,-0.32392 1.31841,-0.32479 1.11612,-0.45739 -0.27996,-0.18354 -2.49306,0.15668 -4.21562,0.64805 -1.12528,0.32099 -1.37747,0.27351 -1.37747,-0.25933 0,-0.38964 0.34553,-0.55671 1.96047,-0.94796 0.79928,-0.19362 1.47049,-0.36811 1.49161,-0.38775 0.0211,-0.0197 -0.11142,-0.11319 -0.29447,-0.20784 -0.30271,-0.15653 -0.44296,-0.15302 -1.54935,0.0387 -0.6691,0.11601 -1.46248,0.26701 -1.76311,0.33559 -0.47034,0.10729 -0.57572,0.0983 -0.75548,-0.0644 -0.28101,-0.2543 -0.26344,-0.5629 0.043,-0.75387 0.13851,-0.0863 0.73031,-0.24336 1.31511,-0.34895 1.34167,-0.24223 1.47101,-0.2782 1.40199,-0.38989 -0.12183,-0.19713 0.41178,-1.84958 1.32071,-4.08999 2.02657,-4.99516 1.95472,-4.85397 2.70373,-5.31387 1.08419,-0.6657 5.40594,-1.56238 10.01914,-2.07876 2.20109,-0.24639 8.06911,-0.34195 10.43186,-0.16989 3.29612,0.24004 7.6698,0.88429 9.18632,1.35319 1.02524,0.317 1.32239,0.61704 2.07416,2.09435 1.17343,2.30593 2.7286,6.20546 2.8686,7.1929 0.13971,0.9854 -0.52471,1.67863 -2.5678,2.67914 -1.50078,0.73495 -2.70433,1.14245 -5.13022,1.73702 -3.59704,0.88162 -6.3791,1.25052 -10.25938,1.36038 -2.40165,0.068 -3.5472,0.26427 -5.84536,1.00151 -1.33207,0.42734 -1.43833,0.44367 -1.63119,0.25081 z m 10.72235,-2.43726 c 2.8283,-0.27164 6.99594,-1.10264 9.34569,-1.86346 1.28315,-0.41549 3.53352,-1.52581 4.01744,-1.98221 0.35158,-0.33158 0.40152,-0.43684 0.33573,-0.70762 -0.25178,-1.03622 -2.42439,-6.35568 -2.72764,-6.6784 -0.0478,-0.0509 -0.38276,0.0559 -0.74431,0.2374 -0.36155,0.18146 -0.93439,0.40813 -1.27295,0.5037 -0.47718,0.13471 -4.11996,0.86542 -6.26777,1.25728 -0.60959,0.11118 -3.98962,0.38747 -6.26776,0.51225 -2.83565,0.15533 -7.16914,0.0735 -9.51358,-0.17961 -3.10972,-0.33574 -5.88479,-0.89266 -6.6897,-1.34254 l -0.48131,-0.269 -0.27943,0.63185 c -0.1537,0.34752 -0.25421,0.6976 -0.22338,0.77795 0.0517,0.13484 0.29073,0.26089 1.09827,0.57925 0.33186,0.13083 0.42074,0.52804 0.17347,0.7753 -0.20209,0.20211 -0.77181,0.16177 -1.26474,-0.0895 -0.55886,-0.28493 -0.63929,-0.28114 -0.59539,0.028 0.0257,0.18076 0.22499,0.34657 0.70631,0.5876 0.7263,0.36369 0.86776,0.61196 0.54926,0.96392 -0.24241,0.26786 -0.65683,0.20808 -1.35971,-0.19614 -0.26162,-0.15046 -0.47568,-0.22519 -0.47568,-0.16607 0,0.0591 -0.0279,0.1801 -0.0619,0.26886 -0.0938,0.24438 0.49017,0.86388 1.03407,1.09703 0.38617,0.16551 0.48287,0.26329 0.48287,0.48818 0,0.17349 -0.10306,0.34877 -0.26922,0.4576 -0.24535,0.16078 -0.30734,0.16047 -0.69953,-0.004 -0.23666,-0.0988 -0.5671,-0.31078 -0.7343,-0.47092 l -0.30398,-0.29117 -0.10152,0.26912 c -0.27824,0.73795 -0.26732,0.96033 0.0598,1.21945 0.53949,0.4273 2.71096,1.41855 4.28718,1.95705 2.15184,0.73515 4.67862,1.20601 9.01688,1.68027 1.66884,0.18244 7.10483,0.1518 9.22679,-0.0519 z m 3.36332,-2.34268 c -0.17161,-0.32066 -0.0505,-0.66934 0.2537,-0.73083 0.13441,-0.0272 0.73146,-0.0734 1.32678,-0.1027 0.84474,-0.0416 1.32962,-0.13793 2.20817,-0.43874 1.00152,-0.34291 1.1507,-0.36795 1.35193,-0.227 0.27863,0.19516 0.29066,0.50041 0.0291,0.73717 -0.10848,0.0981 -0.67506,0.33973 -1.25915,0.53688 -0.89255,0.30125 -1.27888,0.36718 -2.42129,0.4132 -1.3077,0.0526 -1.36422,0.0456 -1.48919,-0.18799 z m 0.50607,-1.64132 c -0.2123,-0.2123 -0.2227,-0.39398 -0.0359,-0.62891 0.0994,-0.12512 0.41858,-0.19416 1.10325,-0.23867 0.59673,-0.0388 1.31305,-0.17821 1.88228,-0.36635 l 0.91894,-0.3037 0.23642,0.23643 c 0.19371,0.1937 0.21511,0.2832 0.11848,0.4953 -0.29288,0.6428 -3.73053,1.29876 -4.2234,0.8059 z m 0.71951,-1.36665 c -0.38683,-0.0634 -0.55962,-0.22947 -0.55962,-0.53783 0,-0.3539 0.30585,-0.49364 1.0839,-0.49523 0.35802,-6.4e-4 0.92327,-0.0739 1.25615,-0.16239 0.77026,-0.20501 1.046,-0.089 0.99624,0.41906 -0.0315,0.32171 -0.0881,0.3684 -0.65011,0.53628 -0.66671,0.19916 -1.67899,0.31346 -2.12656,0.24011 z m 0.38357,-1.45316 c -0.2149,-0.14716 -0.25817,-0.44339 -0.0981,-0.67184 0.17795,-0.25406 0.79275,-0.38571 1.08566,-0.23248 0.2728,0.14271 0.25908,0.72442 -0.0206,0.87412 -0.2497,0.13363 -0.79112,0.15054 -0.96687,0.0301 z m -8.66598,-2.93776 c 4.5843,-0.25073 6.36238,-0.47889 10.80071,-1.38591 1.95369,-0.39926 3.36742,-0.93397 3.26687,-1.23562 -0.13121,-0.39364 -1.73477,-0.82407 -4.77785,-1.28247 -2.85662,-0.43031 -4.7636,-0.58621 -7.94663,-0.64967 -4.06758,-0.081 -6.77375,0.0876 -10.4193,0.64948 -1.47694,0.22764 -1.51986,0.242 -1.47194,0.4927 0.0363,0.18952 -0.11271,0.45474 -0.55983,0.99678 -0.33505,0.4062 -0.7461,0.9901 -0.91342,1.29754 l -0.30426,0.559 0.25882,-0.001 c 0.19969,-9.5e-4 0.34167,-0.15219 0.62149,-0.66167 0.19947,-0.36319 0.49354,-0.81588 0.65351,-1.00599 0.36211,-0.43035 0.78239,-0.46193 0.95997,-0.0722 0.10789,0.23676 0.0721,0.35322 -0.26627,0.86741 -0.59888,0.90997 -0.68425,1.09759 -0.49939,1.09759 0.0853,0 0.31363,-0.25503 0.5074,-0.56673 0.31968,-0.51426 0.38598,-0.56348 0.71625,-0.53163 0.30119,0.0291 0.36996,0.087 0.39876,0.33642 0.0191,0.16573 -0.0492,0.42964 -0.15204,0.58646 -0.24454,0.37321 -0.23606,0.3757 1.68419,0.49409 2.26504,0.13966 5.06872,0.14557 7.44296,0.0157 z m -13.26476,-1.0004 c 0.0703,-0.22166 0.95761,-1.58575 1.41449,-2.17465 0.24163,-0.31146 0.24223,-0.3182 0.0178,-0.19804 -0.55148,0.29514 -2.15573,2.4159 -1.9044,2.51754 0.2727,0.11024 0.40399,0.07 0.47219,-0.14485 z m -1.04352,-1.07146 c 0.74004,-1.10477 0.49542,-1.08769 -0.33675,0.0236 -0.50247,0.67095 -0.61074,0.93901 -0.37421,0.92647 0.0425,-0.002 0.36246,-0.42975 0.71096,-0.94997 z m -1.58129,0.002 c 0.15189,-0.20707 0.14951,-0.21233 -0.0317,-0.0702 -0.10777,0.0845 -0.19586,0.20621 -0.19586,0.27049 0,0.0643 0.0142,0.0959 0.0317,0.0702 0.0174,-0.0257 0.10553,-0.14737 0.19586,-0.27048 z m -36.88374,10.03937 c -0.46828,-0.22008 -1.10563,-0.86082 -1.22248,-1.229 -0.0641,-0.20199 -0.10153,-0.20533 -0.65345,-0.0585 -0.74162,0.19728 -1.37713,0.10871 -1.96783,-0.27434 -0.58048,-0.37639 -0.84505,-0.91131 -0.83694,-1.69217 l 0.006,-0.60165 -0.84935,0.0769 c -1.22499,0.11106 -2.50534,0.3492 -3.63193,0.67566 -1.01889,0.29527 -1.31436,0.27225 -1.46255,-0.11389 -0.13271,-0.34582 0.13601,-0.57255 0.97313,-0.82105 0.4566,-0.13556 1.01218,-0.276 1.23463,-0.3121 0.63856,-0.10364 0.35761,-0.26096 -0.46513,-0.26046 -0.90034,6.3e-4 -2.47453,0.24767 -3.5446,0.55646 -0.4296,0.12397 -0.87018,0.19712 -0.97908,0.16256 -0.27787,-0.0882 -0.38275,-0.5832 -0.16887,-0.79709 0.12786,-0.12785 1.80712,-0.6609 2.20684,-0.7005 0.0297,-0.002 -0.12857,-0.12938 -0.35165,-0.28097 -0.53272,-0.36199 -0.98944,-1.2727 -0.98944,-1.97295 v -0.52574 l -0.47568,0.10588 c -0.88024,0.19587 -2.74366,0.86152 -3.55358,1.26939 -0.47595,0.23968 -0.92496,0.39063 -1.10132,0.37023 -0.2591,-0.03 -0.29775,-0.0853 -0.29775,-0.42618 0,-0.3765 0.0333,-0.40833 0.85732,-0.81805 0.47153,-0.23446 1.32775,-0.59711 1.90271,-0.80586 0.80746,-0.29317 0.96898,-0.38391 0.70962,-0.39867 -0.66197,-0.0377 -0.85761,-0.0204 -1.09856,0.0975 -0.13449,0.0657 -0.76083,0.22594 -1.39188,0.35599 -1.37247,0.28283 -3.29983,0.90649 -4.18979,1.35574 -0.76599,0.38667 -0.92185,0.39961 -1.13576,0.0942 -0.28644,-0.40897 -0.10117,-0.66738 0.75379,-1.05156 1.46671,-0.65904 1.43727,-0.63147 0.60204,-0.56367 -1.00333,0.0815 -2.65602,0.5097 -3.85767,0.99961 -0.53829,0.21945 -1.05853,0.39901 -1.1561,0.39901 -0.25488,0 -0.44601,-0.22746 -0.44601,-0.5308 0,-0.21169 0.1347,-0.3259 0.69953,-0.59311 0.69151,-0.32714 0.69485,-0.33093 0.29217,-0.33102 -1.06078,-2.2e-4 -3.224,0.56356 -4.593597,1.1972 -0.91634,0.42394 -1.36106,0.43945 -1.46265,0.051 -0.11577,-0.44267 0.29401,-0.74881 1.75601,-1.31188 l 0.67832,-0.26123 -0.72752,-0.004 c -0.91786,-0.005 -1.78171,0.19362 -3.72399,0.85544 l -1.541467,0.52524 -0.24147,-0.24146 c -0.39034,-0.39035 -0.15936,-0.70376 0.76404,-1.03672 l 0.769577,-0.27751 -0.486457,-0.035 c -0.26755,-0.0192 -0.74602,0.0221 -1.06328,0.0919 -3.42134,0.75236 -3.58748,0.75601 -3.52137,0.0775 0.0382,-0.39207 0.11822,-0.43323 1.26312,-0.64989 l 0.66899,-0.12661 -0.56257,-0.29458 c -0.83253,-0.43594 -1.23825,-0.77817 -1.66947,-1.4082 -1.373651,-2.007 -0.696831,-4.95699 1.6474,-7.1804 1.73637,-1.64686 4.237017,-2.70138 7.712237,-3.25226 1.478837,-0.23443 5.519177,-0.26573 7.035947,-0.0545 2.72242,0.3791 5.889,1.27117 8.54522,2.40733 0.6678,0.28563 1.25481,0.51934 1.30448,0.51934 0.0497,0 0.21592,-0.21406 0.36947,-0.47568 1.08777,-1.85351 2.97489,-3.01945 4.92122,-3.04052 0.86639,-0.009 0.8698,-0.0106 0.81439,-0.28924 -0.35824,-1.80129 -0.4315,-7.93764 -0.12494,-10.46492 0.35967,-2.96501 0.89471,-5.13883 1.78669,-7.25907 0.26268,-0.6244 0.56764,-1.38709 0.67772,-1.69489 0.30632,-0.85666 0.70652,-1.49042 1.45188,-2.29926 0.37404,-0.40591 1.05782,-1.20647 1.51951,-1.77904 1.39174,-1.726 3.01319,-3.15728 4.50677,-3.97826 0.80134,-0.44047 1.22375,-0.4882 1.67676,-0.18948 0.43124,0.28437 1.42725,1.55772 2.22588,2.84569 0.37215,0.60019 0.69133,1.09126 0.70927,1.09126 0.018,0 0.59592,-0.37378 1.28438,-0.83061 2.46552,-1.63603 6.11735,-3.29997 7.34679,-3.34755 0.41078,-0.0159 0.54211,0.039 0.89144,0.37291 1.97505,1.88767 5.54386,9.59114 7.05169,15.22154 0.10718,0.40013 0.22932,0.76696 0.27147,0.81519 0.0422,0.0482 0.65164,-0.15846 1.35443,-0.4593 1.76946,-0.75744 3.87135,-1.52573 5.42423,-1.98267 4.4351,-1.30505 6.6787,-1.3301 9.17258,-0.10235 1.7099,0.84177 2.92237,2.18338 4.03563,4.46553 0.65643,1.34568 0.94077,2.34493 0.94335,3.31523 0.004,1.23346 -0.5392,2.31962 -1.37415,2.7514 -0.54127,0.27989 -1.56303,0.22588 -2.22516,-0.11766 -0.3085,-0.16005 -0.57513,-0.29101 -0.59254,-0.29101 -0.0174,0 -0.0604,0.13851 -0.0956,0.3078 -0.0908,0.43658 -0.68831,1.11187 -1.23397,1.39449 -0.33459,0.1733 -0.67062,0.24157 -1.19916,0.24365 -1.28364,0.005 -2.16442,-0.72921 -2.30569,-1.92205 l -0.0652,-0.55117 -0.96566,0.60809 c -1.90384,1.19888 -4.26614,2.141 -7.54348,3.00845 -0.88503,0.23425 -1.18998,0.3594 -1.14723,0.47081 0.032,0.0835 0.059,0.26095 0.0599,0.39442 0.004,0.48796 0.14194,0.55859 0.7143,0.36427 1.50089,-0.50956 3.36521,0.0751 4.7933,1.50319 0.87556,0.87554 1.42999,1.91407 1.72158,3.22473 0.49406,2.22066 -0.30521,5.41605 -1.75015,6.99705 l -0.55976,0.61247 0.38817,0.23991 c 0.24806,0.1533 0.49582,0.4599 0.68634,0.84932 0.2541,0.51936 0.28721,0.69628 0.22406,1.19739 -0.10047,0.79694 -0.57178,1.62354 -1.16123,2.03643 -0.40328,0.28249 -0.59506,0.33931 -1.17521,0.34816 -0.50039,0.008 -0.80124,0.0775 -1.08137,0.25102 -0.50742,0.31434 -1.18992,0.40961 -1.78551,0.24923 -0.39965,-0.10765 -0.51004,-0.1007 -0.66768,0.042 -0.28965,0.26213 -0.97169,0.51551 -1.38026,0.51277 -0.5369,-0.004 -1.23034,-0.3578 -1.61567,-0.82527 l -0.33709,-0.40895 -1.11001,0.38649 c -0.61052,0.21256 -1.45469,0.54119 -1.87594,0.73027 -0.85894,0.38552 -1.10312,0.41875 -1.30347,0.17734 -0.29561,-0.35619 -0.0437,-0.68261 0.83008,-1.07583 0.45881,-0.20646 0.81864,-0.39093 0.79964,-0.40993 -0.10482,-0.10482 -3.7513,1.46563 -5.17462,2.22866 -0.44202,0.23697 -0.90222,0.43085 -1.02266,0.43085 -0.29169,0 -0.49594,-0.2634 -0.45086,-0.58145 0.0297,-0.20906 0.35499,-0.41836 1.71545,-1.10362 0.92338,-0.4651 1.93069,-0.95411 2.23848,-1.0867 0.99836,-0.43006 -0.0372,-0.13837 -1.39906,0.39407 -1.48314,0.57987 -3.5778,1.61029 -5.23894,2.5772 -1.17972,0.68669 -1.51808,0.75813 -1.64824,0.34803 -0.15635,-0.49261 -0.0341,-0.5894 2.63406,-2.0855 0.58891,-0.3302 0.91348,-0.56232 0.72751,-0.52026 -0.57601,0.13027 -2.19419,0.72146 -3.2458,1.18582 -1.64773,0.72759 -1.58391,0.70833 -1.78748,0.53939 -0.10471,-0.0869 -0.16818,-0.27491 -0.14888,-0.44088 0.0268,-0.23129 0.19092,-0.37293 0.8171,-0.70556 l 0.78348,-0.41618 -0.50328,-0.004 c -0.27681,-0.002 -0.89578,0.12718 -1.3755,0.28694 l -0.87222,0.29046 0.44516,0.48296 c 0.49618,0.53827 0.63759,1.02276 0.52925,1.81319 -0.24902,1.81676 -2.18944,2.34718 -4.02635,1.10062 l -0.39142,-0.26562 -0.28949,0.43745 c -0.47173,0.71285 -1.05214,1.02562 -1.99766,1.07653 -0.62543,0.0337 -0.90968,-0.005 -1.25687,-0.16733 z m 1.95969,-1.05745 c 0.46268,-0.31582 0.78342,-0.90753 0.78342,-1.44527 0,-0.2274 0.0791,-0.49262 0.17588,-0.58935 0.32363,-0.32363 0.58993,-0.20785 1.0014,0.43538 0.39549,0.61826 1.01705,1.07775 1.66008,1.22721 0.4707,0.10941 1.05601,-0.12435 1.24983,-0.49914 0.355,-0.68649 0.13377,-1.3385 -0.56973,-1.67905 -0.69952,-0.33864 -0.73796,-0.41504 -0.59464,-1.18199 0.1572,-0.84113 0.0652,-7.51293 -0.12916,-9.37143 -0.12232,-1.16935 -0.11818,-1.34388 0.0355,-1.49751 0.21626,-0.21626 0.71191,-0.11495 0.79835,0.16317 0.18566,0.5973 0.30665,2.50657 0.36605,5.77627 l 0.0668,3.67794 2.25094,-0.0733 c 8.13992,-0.26488 12.04883,-1.26682 14.36903,-3.68307 0.65957,-0.68687 1.48074,-2.09337 1.48074,-2.53621 0,-0.27693 0.32887,-0.67162 0.55962,-0.67162 0.36353,0 0.5471,0.39469 0.4322,0.92937 -0.31104,1.44736 -1.64666,3.20863 -3.21034,4.23343 -0.95571,0.62634 -0.93965,0.64074 0.7635,0.68537 l 1.06328,0.0279 0.0603,0.60106 c 0.0477,0.47506 0.12525,0.65689 0.37,0.86742 0.17031,0.14649 0.4043,0.26635 0.51998,0.26635 0.71847,0 1.28001,-0.65735 1.18986,-1.39287 -0.0676,-0.55156 0.0826,-0.84562 0.43168,-0.84562 0.39053,0 0.61799,0.39774 0.61799,1.08064 0,0.487 0.0373,0.59498 0.22637,0.65499 0.37606,0.11935 0.87035,-0.0536 1.1697,-0.40939 0.33625,-0.39962 0.43944,-0.75156 0.36465,-1.24373 -0.0769,-0.50607 0.0824,-0.75406 0.48448,-0.75406 0.43177,0 0.58916,0.37597 0.52748,1.2601 -0.0424,0.60807 -0.0319,0.64065 0.18611,0.57595 0.67698,-0.20089 1.08719,-0.80638 1.11077,-1.63955 0.0151,-0.53359 -0.4026,-0.98202 -1.01028,-1.0846 -0.34534,-0.0583 -0.58481,-10e-4 -1.22732,0.29321 -0.43904,0.2011 -1.36378,0.52351 -2.05496,0.71646 -1.39826,0.39033 -1.79163,0.35489 -1.79163,-0.16142 0,-0.37655 0.1383,-0.45696 1.35075,-0.78531 1.31908,-0.35722 2.51749,-0.84403 3.15067,-1.27986 1.58078,-1.08805 2.57059,-3.05256 2.73877,-5.43574 0.16019,-2.26997 -0.98514,-4.41568 -2.85036,-5.33998 -0.64574,-0.32 -0.87119,-0.37347 -1.59173,-0.37754 -0.65046,-0.004 -0.92762,0.0469 -1.23117,0.22477 -0.38587,0.2261 -0.39257,0.24285 -0.44769,1.11925 l -0.0559,0.88971 -0.35631,0.0345 c -0.48109,0.0466 -0.55094,-0.12471 -0.63023,-1.5455 -0.036,-0.64636 -0.17463,-1.74226 -0.30789,-2.43534 -0.19436,-1.01068 -0.21491,-1.29316 -0.10377,-1.42703 0.20029,-0.24134 0.63143,-0.2049 0.82371,0.0696 l 0.16567,0.23653 1.15579,-0.30341 c 3.10945,-0.81627 5.63761,-1.84021 7.37742,-2.988 l 0.88556,-0.58423 -0.002,-0.56518 c -10e-4,-0.46091 -0.0552,-0.61582 -0.29122,-0.83974 -0.38499,-0.36538 -0.49081,-0.6776 -0.48786,-1.43956 0.004,-0.94975 0.54751,-2.03534 1.01964,-2.03534 0.11212,0 0.28244,0.11983 0.3784,0.26631 0.16249,0.24797 0.15496,0.30306 -0.10929,0.80014 -0.36877,0.69355 -0.3817,1.37966 -0.032,1.69815 0.38961,0.35487 0.70132,0.48121 1.18725,0.48121 0.94828,0 1.4522,-0.88105 1.21951,-2.13223 -0.13772,-0.74062 -0.0259,-1.00166 0.4291,-1.00166 0.33493,0 0.40457,0.14232 0.76681,1.56694 0.35764,1.40655 0.80463,2.41041 1.43997,3.23396 0.59551,0.77192 0.99753,1.01821 1.66288,1.01876 0.44371,3e-4 0.56437,-0.0503 0.80716,-0.33884 0.91704,-1.08985 0.60788,-2.91027 -0.93902,-5.52925 -1.05918,-1.79323 -2.44895,-2.88325 -4.34659,-3.40911 -1.70311,-0.47196 -2.56888,-0.42862 -5.45317,0.27301 -2.38587,0.58037 -6.24303,1.95574 -8.00563,2.85461 l -0.40306,0.20555 0.19771,0.91109 c 0.19275,0.88814 0.19232,0.91649 -0.0166,1.12547 -0.53039,0.53039 -0.69676,0.27477 -1.22184,-1.87739 -1.32927,-5.44828 -3.78989,-11.5427 -6.1019,-15.11306 -0.79096,-1.22145 -1.14028,-1.59848 -1.48101,-1.59848 -1.10426,0 -6.31346,2.70164 -8.12294,4.21277 -0.41551,0.347 -0.69803,0.33383 -0.93495,-0.0436 -1.57453,-2.50813 -2.78536,-4.16919 -3.0392,-4.16919 -0.0583,0 -0.5556,0.29525 -1.10513,0.65608 -0.90655,0.59528 -3.16655,2.60432 -3.16655,2.81492 0,0.0477 0.21405,0.0356 0.47568,-0.027 0.67916,-0.16246 2.3832,-0.15014 3.10591,0.0225 1.40969,0.3367 2.75351,1.21263 3.52561,2.29808 l 0.4477,0.62939 0.27564,-0.37088 c 0.84064,-1.13109 2.36489,-2.11186 3.8096,-2.45125 0.81101,-0.19053 2.47465,-0.19038 3.2458,3.1e-4 2.06568,0.51074 3.73858,2.09383 4.36912,4.1345 0.27596,0.89313 0.29553,2.54538 0.0417,3.52565 -0.30535,1.17948 -0.6963,1.86248 -1.54683,2.70234 -1.38954,1.37211 -2.8572,1.91812 -4.87867,1.81499 -1.36399,-0.0696 -2.32909,-0.33836 -3.28734,-0.91553 -0.7455,-0.44906 -0.74193,-0.44786 -0.74193,-0.24935 0,0.0806 -0.16721,0.42418 -0.37159,0.76357 -0.47983,0.79683 -0.44175,1.19927 0.20471,2.1633 1.04284,1.55515 3.04538,5.87664 2.89943,6.25699 -0.0868,0.22626 -0.86653,0.66053 -1.87862,1.04634 -0.73115,0.2787 -0.93237,0.3045 -2.40278,0.30814 -1.90553,0.005 -1.92994,-0.0106 -2.14922,-1.31019 -0.37657,-2.23259 0.21614,-4.68203 1.56437,-6.46487 0.60342,-0.79796 0.56173,-1.1308 -0.25203,-2.01207 l -0.57634,-0.62414 -0.57618,0.31208 c -1.32203,0.71604 -3.89767,0.99167 -5.47613,0.58602 -1.952,-0.50163 -3.38789,-1.84814 -4.14563,-3.88758 -0.1426,-0.38377 -0.26188,-0.66063 -0.26509,-0.61522 -0.004,0.0455 -0.13406,0.57423 -0.29079,1.1752 -0.67517,2.58894 -0.95653,5.14304 -0.95725,8.68978 -10e-4,6.52687 1.16128,12.48544 4.07554,20.88764 0.45905,1.3235 0.90027,2.56602 0.98048,2.76116 0.12003,0.29198 0.11986,0.38608 -9.4e-4,0.53163 -0.17215,0.20742 -0.59597,0.23061 -0.88748,0.0485 -0.29953,-0.18706 -0.77735,-0.0274 -1.20836,0.40352 -0.31467,0.31466 -0.37395,0.45488 -0.37395,0.88444 0,0.37204 0.0628,0.569 0.2316,0.72626 0.6109,0.56914 1.83972,0.2839 2.31198,-0.53667 0.25967,-0.45126 1.18157,-1.01347 1.6618,-1.01347 0.31129,0 0.52296,0.25347 0.47601,0.57001 -0.0382,0.25682 -0.10388,0.30787 -0.78428,0.60893 -0.66795,0.29554 -0.79146,1.02327 -0.27215,1.60343 0.47432,0.52987 1.36495,0.62547 1.97127,0.2116 z m -4.89674,-4.45661 c 0.23085,-0.0621 0.41972,-0.12484 0.41972,-0.1394 0,-0.0146 -0.37913,-1.15844 -0.8425,-2.54196 -1.5897,-4.74643 -2.60083,-8.51795 -3.13493,-11.6933 -0.0932,-0.55403 -0.19837,-1.15052 -0.23374,-1.32553 l -0.0643,-0.31823 -1.02412,0.0397 c -0.82007,0.0318 -1.15163,0.0992 -1.66412,0.33838 -1.2584,0.58738 -2.31839,1.85866 -2.83641,3.40182 -0.26618,0.79291 -0.29081,1.00343 -0.24748,2.1144 0.0603,1.54604 0.33384,2.32265 1.10537,3.13843 0.63018,0.66631 1.82363,1.37809 3.07098,1.83152 0.76136,0.27677 1.28835,0.41137 2.93003,0.7484 0.33931,0.0696 0.52258,0.42919 0.36698,0.71994 -0.16191,0.30252 -0.87394,0.28978 -2.14953,-0.0385 -0.85751,-0.22065 -1.10521,-0.23938 -2.06592,-0.15615 -1.27827,0.11072 -1.79558,0.34608 -2.15105,0.97855 -0.50544,0.89931 -0.0864,1.92133 0.88558,2.16033 0.41437,0.10187 0.80727,-0.0258 0.72654,-0.23617 -0.0364,-0.0949 -0.008,-0.45282 0.0631,-0.7954 0.17196,-0.82826 0.77119,-1.46499 1.37874,-1.46499 0.32567,0 0.43282,0.0561 0.5346,0.27937 0.10517,0.23082 0.092,0.31831 -0.0757,0.50365 -0.11165,0.12337 -0.26788,0.22431 -0.34718,0.22431 -0.48589,0 -0.67841,1.32534 -0.25806,1.77653 0.27891,0.29937 0.66836,0.46195 1.10662,0.46195 0.60013,0 0.67341,-0.084 0.67341,-0.77173 0,-0.73759 0.33182,-1.49639 0.80505,-1.84103 0.2851,-0.20763 0.31685,-0.20936 0.5876,-0.0319 0.37265,0.24417 0.36115,0.45922 -0.0496,0.92699 -0.26054,0.29674 -0.33539,0.48814 -0.33406,0.8542 0.002,0.56312 0.0671,0.68186 0.5045,0.91975 0.35819,0.19483 1.47249,0.16417 2.31988,-0.0638 z m -7.53603,-4.8263 c 0.0949,-0.0284 -0.0626,-0.17693 -0.39174,-0.36958 -0.71464,-0.41827 -1.64923,-1.30546 -1.99052,-1.88957 -0.64451,-1.10303 -0.94665,-2.83572 -0.73438,-4.21129 0.0712,-0.46169 0.13634,-0.93181 0.14465,-1.04473 0.0194,-0.2639 -1.61601,-0.98226 -4.12609,-1.81237 -1.9321,-0.63896 -3.38376,-0.98488 -5.14853,-1.22688 -5.09258,-0.69835 -10.263377,0.14424 -13.224204,2.15489 -2.0064,1.36253 -3.32715,3.78951 -2.97524,5.46727 0.36689,1.74914 1.63513,2.60544 4.49658,3.03604 0.991537,0.1492 2.931247,0.18843 12.038644,0.24349 9.88049,0.0597 10.89692,0.0492 11.30436,-0.11719 0.24624,-0.10046 0.51915,-0.20407 0.60647,-0.23013 z m 19.45598,-15.53736 c 0.38474,-0.13384 0.69952,-0.27983 0.69952,-0.3244 0,-0.21016 -0.94586,-0.59579 -1.46136,-0.59579 -0.77568,0 -1.89636,0.7006 -1.89636,1.18551 0,0.18222 1.92366,-0.009 2.6582,-0.26532 z m 30.39242,-0.18576 c 0.3824,-0.19544 0.74956,-0.7714 0.75012,-1.17671 l 3.2e-4,-0.30021 -0.56097,0.3775 c -0.58834,0.39592 -1.33392,0.57706 -1.90503,0.46284 -0.42853,-0.0857 -0.44855,0.16654 -0.0431,0.54235 0.44865,0.41577 1.06477,0.4488 1.75852,0.0942 z m -0.63998,-1.81611 c 0.53938,-0.24499 0.78036,-0.70936 0.68214,-1.31458 -0.036,-0.22205 -0.0895,-0.42775 -0.11885,-0.45708 -0.0293,-0.0293 -0.24554,0.0989 -0.48046,0.28502 -0.50149,0.39726 -1.20557,0.6085 -1.69911,0.5098 -0.31538,-0.0631 -0.35093,-0.043 -0.35093,0.19871 0,0.80321 1.02195,1.20744 1.96721,0.77813 z m -35.07074,-7.38033 c 1.05833,-0.37777 1.91745,-1.07769 2.73801,-2.23063 0.33865,-0.47583 0.33921,-0.47916 0.18859,-1.11924 -0.17574,-0.74674 -0.19712,-2.3367 -0.0405,-3.01506 0.0927,-0.40159 0.0731,-0.53251 -0.13382,-0.89539 -1.10831,-1.94358 -2.62877,-2.83143 -4.84892,-2.83143 -2.7223,0 -4.7316,1.51374 -5.35787,4.03643 -0.69834,2.813 0.75574,5.45719 3.4109,6.20256 0.87716,0.24623 3.17582,0.16254 4.04366,-0.14724 z m -1.74357,-5.70752 c -0.25033,-0.27661 -0.23933,-0.94284 0.0194,-1.17703 0.2882,-0.26082 0.94325,-0.23887 1.19568,0.04 0.4824,0.53305 0.11059,1.34164 -0.6169,1.34164 -0.25795,0 -0.48253,-0.0768 -0.59823,-0.20467 z m 12.29042,5.85318 c 1.31555,-0.34267 2.65434,-1.32673 3.21711,-2.36472 0.70612,-1.30241 0.8451,-3.31472 0.32017,-4.63592 -1.0454,-2.63114 -4.05388,-3.83507 -6.99781,-2.80035 -1.36235,0.47882 -2.4595,1.51481 -2.97528,2.8094 -0.51538,1.29357 -0.38802,3.24262 0.3043,4.65653 0.90727,1.85286 3.78103,2.94728 6.13151,2.33506 z m -3.52171,-5.98428 c -0.32206,-0.32206 -0.28975,-0.8273 0.071,-1.11112 0.16221,-0.12758 0.38885,-0.23197 0.50367,-0.23197 0.59667,0 0.90285,1.04589 0.4077,1.39271 -0.3393,0.23765 -0.71408,0.21872 -0.98242,-0.0496 z m -3.04639,4.87308 c -0.20201,-0.27461 -0.39441,-0.50126 -0.42754,-0.50366 -0.0331,-0.002 -0.24969,0.22228 -0.48124,0.49929 l -0.42101,0.50366 h 0.84854 0.84855 z"
       id="path830"
       inkscape:connector-curvature="0"
       sodipodi:nodetypes="csccccccccccccccccscsscccccccccscsssccsssscccsccsccscsccccscccccsccsccsccscsccccscccccccccsscscccscccscccsccccscsssccccccccssccccccccccccccccccccscccccccccccccccssccsccscsscccsscsccsssscccccscsccccccccsscccscccsscsscccscccccssssccsscccccsccccccsccccscccccccccccscscccsccscsccccccccsccsccccsccccccsccscscsscsscccscssccssccccccsccscscscccscccccccccsccssssccccsccccccssscsscsccscscccccccsccccscscccsccscsccccsscscsccccsccccccsccccccsscccsccscsscsccccccccccscsssccssssscccsccccscscssscccccsscccccscsccccssscscsccccccc" />
    <rect
       style="fill:#000000;fill-opacity:1;stroke:#000000;stroke-width:0.07623867;stroke-miterlimit:4;stroke-dasharray:none"
       id="rect849"
       width="15.97481"
       height="108.18263"
       x="243.73662"
       y="190.35625" />
    <path
       style="fill:#ffffff;stroke-width:0.04529805"
       d="m 255.9945,242.33849 c -0.052,0.10447 -0.0638,0.10602 -0.98181,0.1284 -0.92293,0.0225 -0.93107,0.0236 -1.20605,0.15993 l -0.27684,0.13729 -0.0726,-0.36203 c -0.23486,-1.17095 -0.90589,-1.74984 -2.11421,-1.82387 -0.60526,-0.0371 -1.02686,0.0731 -1.4274,0.37317 -0.12531,0.0939 -0.16098,0.10001 -0.33973,0.0585 -0.23135,-0.0537 -0.7648,-0.0234 -0.98668,0.0561 -0.15217,0.0545 -0.15267,0.0557 -0.12538,0.28596 0.0172,0.14598 0.1123,0.40002 0.25771,0.68901 l 0.23033,0.45777 -0.071,0.37413 c -0.0901,0.47494 -0.0907,1.14519 -0.001,1.6569 l 0.0695,0.39868 -0.2246,0.44063 c -0.25896,0.50803 -0.33424,0.83947 -0.21112,0.92949 0.15374,0.11243 0.67215,0.1727 0.97421,0.11327 l 0.27711,-0.0545 0.26968,0.18008 c 0.45206,0.30188 0.98529,0.38259 1.69373,0.25635 0.95113,-0.16949 1.52707,-0.76092 1.73063,-1.77714 l 0.0745,-0.37204 0.1864,0.10713 c 0.10253,0.0589 0.25153,0.1207 0.33112,0.13727 0.11155,0.0232 0.15492,0.0632 0.18928,0.17431 0.0861,0.27866 0.0998,0.42521 0.0573,0.61444 -0.0593,0.26364 -0.20324,0.45734 -0.48791,0.65627 -0.34842,0.24348 -0.48101,0.4359 -0.50572,0.73395 -0.0268,0.3222 0.0429,0.32295 0.31875,0.003 0.14898,-0.17257 0.3153,-0.29759 0.57707,-0.43378 0.58338,-0.30351 0.76282,-0.64771 0.7134,-1.36854 l -0.0244,-0.35604 h 0.44575 c 0.60108,0 0.67813,0.0324 0.67813,0.28571 0,0.40605 -0.6681,1.51959 -1.23112,2.05195 -0.73506,0.69502 -1.69928,1.17608 -2.66451,1.32934 -0.40771,0.0647 -1.22371,0.0564 -1.63073,-0.0168 -1.01043,-0.18148 -2.07712,-0.76052 -2.74647,-1.49088 -1.84057,-2.00835 -1.73459,-5.10987 0.23789,-6.96243 0.62723,-0.58909 1.29307,-0.9498 2.17732,-1.17952 1.40578,-0.36522 2.94635,-0.0633 4.11514,0.80663 0.67616,0.50324 1.18426,1.12612 1.53869,1.88628 0.23308,0.49989 0.25369,0.57913 0.186,0.71517 z m -1.481,3.18845 c -0.0755,0.0467 -0.16214,-0.0583 -0.0996,-0.1208 0.0523,-0.0523 0.1489,-0.0195 0.1489,0.0504 0,0.022 -0.0222,0.0536 -0.0493,0.0704 z m -0.0455,-0.38337 c -0.0351,0.0544 -0.0477,0.0539 -0.0857,-0.004 -0.0513,-0.0782 -0.0391,-0.14577 0.0305,-0.16896 0.0671,-0.0224 0.10489,0.0959 0.0552,0.17307 z m -0.0414,0.78881 c -0.0553,0.0342 -0.11005,-0.0901 -0.069,-0.15657 0.0162,-0.0261 0.0485,-0.0475 0.072,-0.0475 0.0571,0 0.0547,0.16841 -0.003,0.20403 z m -0.20548,0.32391 c -0.0385,0.0148 -0.0797,0.0171 -0.0917,0.005 -0.0403,-0.0403 0.0348,-0.17063 0.0985,-0.17063 0.0857,0 0.0803,0.13215 -0.007,0.16557 z m -0.0893,-10.9012 c -0.20114,0.89547 -0.83365,1.49674 -1.78863,1.7003 -0.71251,0.15188 -1.73041,0.13169 -2.42028,-0.048 -0.91974,-0.23956 -1.49714,-0.81991 -1.68159,-1.69021 -0.11659,-0.55006 -0.0719,-1.43591 0.0999,-1.97785 0.11253,-0.35514 0.11619,-0.35661 0.60746,-0.24464 0.6038,0.13763 0.59223,0.12875 0.50993,0.39119 -0.10901,0.3476 -0.13181,1.16507 -0.0412,1.47678 0.19731,0.67876 0.80604,0.9665 1.95191,0.92268 0.90494,-0.0346 1.33726,-0.22738 1.57004,-0.70006 0.0902,-0.18318 0.10549,-0.28112 0.10267,-0.65793 -0.002,-0.24349 -0.0239,-0.46329 -0.0491,-0.48846 -0.0272,-0.0272 -0.2646,-0.0405 -0.58556,-0.0329 l -0.53981,0.0128 -0.0131,0.39636 -0.0131,0.39635 h -0.54268 -0.54268 l 0.0122,-1.00788 0.0122,-1.00788 1.47974,-0.0119 1.47974,-0.0119 0.0875,0.11124 c 0.0482,0.0612 0.14513,0.28058 0.21558,0.48756 0.11329,0.33291 0.12962,0.45213 0.14153,1.03316 0.009,0.4557 -0.007,0.74698 -0.0527,0.95126 z m -0.0101,-6.22753 c -0.12217,0.34076 -0.25809,0.50074 -0.54523,0.64175 -0.2576,0.12649 -0.26643,0.12747 -1.28991,0.14299 l -1.03052,0.0156 v 0.24113 c 0,0.38549 0.001,0.38443 -0.45608,0.38443 h -0.4011 l -0.0464,-0.17234 c -0.0255,-0.0948 -0.0593,-0.23688 -0.0751,-0.31577 l -0.0287,-0.14343 -0.57214,-0.0126 -0.57216,-0.0126 v -0.58888 -0.58887 l 0.55491,-0.0127 0.5549,-0.0127 v -0.43042 -0.43042 l 0.50959,0.0128 0.50961,0.0128 0.013,0.419 0.013,0.41901 h 0.83379 c 0.80977,0 0.83735,-0.003 0.95749,-0.1064 0.10784,-0.0928 0.12703,-0.14937 0.14974,-0.44166 l 0.0261,-0.33525 0.41949,-0.013 0.41947,-0.013 0.0503,0.12628 c 0.0277,0.0695 0.0586,0.31992 0.0689,0.5566 0.0146,0.33562 6.9e-4,0.4804 -0.0629,0.65778 z m 0.004,-7.22599 c -0.10633,0.308 -0.27217,0.49587 -0.55462,0.62832 l -0.25398,0.11909 h -1.54014 -1.54013 l -0.0126,-0.60019 -0.0126,-0.60021 1.25834,-3.4e-4 c 1.34663,-3.4e-4 1.55379,-0.0259 1.6726,-0.20729 0.0904,-0.13793 0.0643,-0.56431 -0.0477,-0.78101 l -0.0737,-0.14259 -1.3921,-0.012 -1.39209,-0.012 -0.0127,-0.60068 -0.0126,-0.60069 1.93781,0.0118 1.93781,0.0119 0.0133,0.35535 c 0.0141,0.37772 -0.0256,0.48266 -0.18261,0.48266 -0.0854,0 -0.0863,0.006 -0.0175,0.11098 0.04,0.0611 0.12387,0.26338 0.1864,0.44965 0.13657,0.40684 0.1547,1.05201 0.0389,1.38719 z m 0.0554,-5.14133 c -0.009,0.0249 -0.0516,0.15699 -0.0938,0.29351 -0.0422,0.13652 -0.11778,0.30586 -0.16795,0.37632 -0.0502,0.0705 -0.0839,0.13299 -0.0749,0.13897 0.009,0.006 0.0731,0.0353 0.14253,0.0651 l 0.12628,0.0543 -0.013,0.4192 -0.013,0.4192 h -2.83113 -2.83113 l -0.0126,-0.60019 -0.0126,-0.6002 h 0.94503 c 0.51976,0 0.95643,-0.0114 0.97039,-0.0254 0.0139,-0.0139 -0.002,-0.0809 -0.0362,-0.14874 -0.1297,-0.25998 -0.21217,-0.70279 -0.18503,-0.99343 0.0503,-0.53886 0.30181,-0.91321 0.74801,-1.11346 0.36224,-0.16256 0.64881,-0.2104 1.26029,-0.2104 1.06609,0 1.69172,0.24666 1.96741,0.77567 0.0837,0.1606 0.10571,0.28424 0.11599,0.65122 0.007,0.24914 0.005,0.47336 -0.004,0.49828 z m -1.12691,-0.49844 c -0.17888,-0.17888 -0.43673,-0.22517 -1.08583,-0.19492 -0.45901,0.0214 -0.66019,0.096 -0.78904,0.29266 -0.0986,0.15046 -0.0939,0.516 0.01,0.77552 l 0.0766,0.19141 h 0.87285 c 0.64313,0 0.88515,-0.0149 0.9196,-0.0566 0.0763,-0.0924 0.13708,-0.35709 0.14144,-0.61606 0.003,-0.21644 -0.0119,-0.25833 -0.14556,-0.39198 z m 0.99372,15.87209 c -0.0444,0.0369 -0.59027,0.048 -1.93649,0.0395 l -1.87461,-0.0119 -0.0127,-0.58533 c -0.01,-0.43785 0.002,-0.59461 0.0453,-0.62215 0.0881,-0.0559 3.64748,-0.0477 3.7528,0.009 0.0791,0.0423 0.0876,0.0993 0.0876,0.58333 0,0.39817 -0.0159,0.54967 -0.0619,0.58778 z m 0.033,-4.87334 c -0.0173,0.0173 -1.30269,0.0315 -2.85638,0.0315 h -2.8249 l 0.0126,-0.6002 0.0126,-0.6002 1.05318,-0.0121 1.05317,-0.0121 v -0.81369 -0.81371 l -1.05317,-0.0121 -1.05318,-0.0121 v -0.61152 -0.61153 h 2.83113 2.83112 v 0.61153 0.61152 l -1.21172,0.0121 -1.21172,0.0121 v 0.81388 0.81389 l 1.21172,0.0121 1.21172,0.0121 0.0126,0.56871 c 0.007,0.31279 -0.001,0.58288 -0.0188,0.6002 z m -0.13159,19.22223 c -0.0385,0.0148 -0.0813,0.0154 -0.0951,0.001 -0.0396,-0.0396 0.0276,-0.12185 0.0998,-0.12185 0.0869,0 0.0836,0.0864 -0.005,0.12027 z m -0.29248,0.19682 c -0.0249,0 -0.0453,-0.0204 -0.0453,-0.0453 0,-0.0249 0.0204,-0.0453 0.0453,-0.0453 0.0249,0 0.0453,0.0204 0.0453,0.0453 0,0.0249 -0.0204,0.0453 -0.0453,0.0453 z m -3.83251,-14.82235 c -0.31824,0.62382 -1.28657,0.39599 -1.286,-0.30258 3.4e-4,-0.5162 0.50926,-0.83351 0.97911,-0.61056 0.32046,0.15208 0.46928,0.59485 0.30689,0.91314 z"
       id="path843"
       inkscape:connector-curvature="0" />
    <text
       xml:space="preserve"
       style="font-style:normal;font-weight:normal;font-size:5.96290731px;line-height:1.25;font-family:sans-serif;letter-spacing:0px;word-spacing:0px;fill:#ffffff;fill-opacity:1;stroke:none;stroke-width:0.14907268"
       x="-279.4549"
       y="253.59645"
       id="text847"
       transform="rotate(-90)"><tspan
         sodipodi:role="line"
         id="tspan845"
         x="-279.4549"
         y="253.59645"
         style="font-style:normal;font-variant:normal;font-weight:normal;font-stretch:normal;font-family:'Futura Round Medium';-inkscape-font-specification:'Futura Round Medium, ';fill:#ffffff;stroke-width:0.14907268">Powered by </tspan></text>
  </g>
</svg>
